# xmcd CD database file
#
# Track frame offsets:
#	150
#	12935
#	29465
#	48382
#	62740
#	76190
#	90927
#	104482
#	118962
#	129857
#
# Disc length: 1974 seconds
#
# Revision: 2
# Processed by: cddbd v1.5.2PL0 Copyright (c) Steve Scherf et al.
# Submitted via: CDex 1.79
#
DISCID=7707b40a
DTITLE=Randy Travis - Old 8 x10
DYEAR=1988
DGENRE=Country
TTITLE0=Honky Tonk Moon
TTITLE1=Deeper Than The Holler 
TTITLE2=It's Out Of My Hands
TTITLE3=Is It Still Over
TTITLE4=Old 8 x10
TTITLE5=Written In Stone
TTITLE6=The Blues In Black And White
TTITLE7=Here In My Heart
TTITLE8=We Ain't Out Of Love Yet
TTITLE9=Promises
EXTD=YEAR: 1988
EXTT0=
EXTT1=
EXTT2=
EXTT3=
EXTT4=
EXTT5=
EXTT6=
EXTT7=
EXTT8=
EXTT9=
PLAYORDER=
